<svg xmlns="http://www.w3.org/2000/svg" xmlns:xlink="http://www.w3.org/1999/xlink" width="48" zoomAndPan="magnify" viewBox="0 0 36 36.000001" height="48" preserveAspectRatio="xMidYMid meet" version="1.0"><defs><clipPath id="f48b79851e"><path d="M 4.335938 3.503906 L 31.335938 3.503906 L 31.335938 30.503906 L 4.335938 30.503906 Z M 4.335938 3.503906 " clip-rule="nonzero"/></clipPath></defs><path fill="#215ee6" d="M 25.660156 12.492188 L 10.4375 12.492188 L 18.050781 16.894531 L 20.117188 15.699219 C 20.125 15.691406 20.136719 15.6875 20.144531 15.679688 Z M 25.660156 12.492188 " fill-opacity="1" fill-rule="evenodd"/><path fill="#215ee6" d="M 26.417969 21.558594 L 26.417969 12.695312 L 20.726562 15.988281 Z M 26.417969 21.558594 " fill-opacity="1" fill-rule="evenodd"/><path fill="#215ee6" d="M 26.015625 21.941406 L 20.226562 16.277344 L 18.207031 17.445312 C 18.121094 17.503906 18.003906 17.511719 17.910156 17.457031 L 15.792969 16.230469 L 10.074219 21.941406 Z M 26.015625 21.941406 " fill-opacity="1" fill-rule="evenodd"/><path fill="#215ee6" d="M 15.292969 15.941406 L 9.679688 12.695312 L 9.679688 21.546875 Z M 15.292969 15.941406 " fill-opacity="1" fill-rule="evenodd"/><g clip-path="url(#f48b79851e)"><path fill="#215ee6" d="M 18.050781 3.503906 C 25.621094 3.503906 31.761719 9.640625 31.761719 17.214844 C 31.761719 24.789062 25.621094 30.929688 18.050781 30.929688 C 10.476562 30.929688 4.335938 24.789062 4.335938 17.214844 C 4.335938 9.640625 10.476562 3.503906 18.050781 3.503906 Z M 18.050781 4.875 C 24.863281 4.875 30.390625 10.398438 30.390625 17.214844 C 30.390625 24.03125 24.863281 29.558594 18.050781 29.558594 C 11.234375 29.558594 5.707031 24.03125 5.707031 17.214844 C 5.707031 10.398438 11.234375 4.875 18.050781 4.875 Z M 18.050781 4.875 " fill-opacity="1" fill-rule="evenodd"/></g></svg>
