<svg xmlns="http://www.w3.org/2000/svg" xmlns:xlink="http://www.w3.org/1999/xlink" width="48" zoomAndPan="magnify" viewBox="0 0 36 36.000001" height="48" preserveAspectRatio="xMidYMid meet" version="1.0"><defs><clipPath id="cc218b86d5"><path d="M 3.988281 4.140625 L 31 4.140625 L 31 31 L 3.988281 31 Z M 3.988281 4.140625 " clip-rule="nonzero"/></clipPath><clipPath id="5145185c09"><path d="M 10 4.140625 L 25 4.140625 L 25 31 L 10 31 Z M 10 4.140625 " clip-rule="nonzero"/></clipPath><clipPath id="76943fcc7e"><path d="M 16 4.140625 L 19 4.140625 L 19 31 L 16 31 Z M 16 4.140625 " clip-rule="nonzero"/></clipPath><clipPath id="b4a383d562"><path d="M 23 19 L 31.71875 19 L 31.71875 29 L 23 29 Z M 23 19 " clip-rule="nonzero"/></clipPath></defs><g clip-path="url(#cc218b86d5)"><path fill="#215ee6" d="M 17.363281 30.878906 C 9.992188 30.878906 3.992188 24.878906 3.992188 17.507812 C 3.992188 10.136719 9.992188 4.140625 17.363281 4.140625 C 24.734375 4.140625 30.730469 10.136719 30.730469 17.507812 C 30.730469 17.8125 30.722656 18.121094 30.699219 18.421875 C 30.671875 18.820312 30.328125 19.125 29.925781 19.097656 C 29.527344 19.070312 29.222656 18.722656 29.25 18.324219 C 29.269531 18.054688 29.277344 17.78125 29.277344 17.507812 C 29.277344 10.9375 23.933594 5.59375 17.363281 5.59375 C 10.792969 5.59375 5.445312 10.9375 5.445312 17.507812 C 5.445312 24.078125 10.792969 29.425781 17.363281 29.425781 C 17.542969 29.425781 17.722656 29.421875 17.898438 29.414062 C 18.300781 29.394531 18.640625 29.703125 18.65625 30.105469 C 18.675781 30.507812 18.363281 30.847656 17.964844 30.863281 C 17.765625 30.871094 17.5625 30.878906 17.363281 30.878906 Z M 17.363281 30.878906 " fill-opacity="1" fill-rule="nonzero"/></g><g clip-path="url(#5145185c09)"><path fill="#215ee6" d="M 17.363281 30.878906 C 15.308594 30.878906 13.417969 29.425781 12.035156 26.785156 C 10.734375 24.296875 10.015625 21 10.015625 17.507812 C 10.015625 14.015625 10.734375 10.722656 12.035156 8.230469 C 13.417969 5.59375 15.308594 4.140625 17.363281 4.140625 C 19.414062 4.140625 21.304688 5.59375 22.6875 8.230469 C 23.992188 10.722656 24.710938 14.015625 24.710938 17.507812 C 24.710938 18.363281 24.667969 19.222656 24.578125 20.054688 C 24.539062 20.453125 24.179688 20.742188 23.78125 20.703125 C 23.382812 20.660156 23.09375 20.304688 23.132812 19.902344 C 23.214844 19.121094 23.257812 18.316406 23.257812 17.507812 C 23.257812 11.050781 20.558594 5.59375 17.363281 5.59375 C 14.167969 5.59375 11.46875 11.050781 11.46875 17.507812 C 11.46875 23.96875 14.167969 29.425781 17.363281 29.425781 C 17.765625 29.425781 18.089844 29.75 18.089844 30.152344 C 18.089844 30.550781 17.765625 30.878906 17.363281 30.878906 Z M 17.363281 30.878906 " fill-opacity="1" fill-rule="nonzero"/></g><g clip-path="url(#76943fcc7e)"><path fill="#215ee6" d="M 17.363281 30.878906 C 16.960938 30.878906 16.636719 30.550781 16.636719 30.152344 L 16.636719 4.867188 C 16.636719 4.464844 16.960938 4.140625 17.363281 4.140625 C 17.761719 4.140625 18.089844 4.464844 18.089844 4.867188 L 18.089844 30.152344 C 18.089844 30.550781 17.761719 30.878906 17.363281 30.878906 Z M 17.363281 30.878906 " fill-opacity="1" fill-rule="nonzero"/></g><path fill="#215ee6" d="M 29.574219 18.667969 L 5.152344 18.667969 C 4.75 18.667969 4.425781 18.339844 4.425781 17.941406 C 4.425781 17.539062 4.75 17.214844 5.152344 17.214844 L 29.574219 17.214844 C 29.976562 17.214844 30.300781 17.539062 30.300781 17.941406 C 30.300781 18.339844 29.976562 18.667969 29.574219 18.667969 Z M 29.574219 18.667969 " fill-opacity="1" fill-rule="nonzero"/><path fill="#215ee6" d="M 18.953125 25.1875 L 6.929688 25.1875 C 6.527344 25.1875 6.199219 24.863281 6.199219 24.460938 C 6.199219 24.058594 6.527344 23.734375 6.929688 23.734375 L 18.953125 23.734375 C 19.355469 23.734375 19.679688 24.058594 19.679688 24.460938 C 19.679688 24.863281 19.355469 25.1875 18.953125 25.1875 Z M 18.953125 25.1875 " fill-opacity="1" fill-rule="nonzero"/><path fill="#215ee6" d="M 28.308594 12.144531 L 6.414062 12.144531 C 6.011719 12.144531 5.6875 11.820312 5.6875 11.417969 C 5.6875 11.015625 6.011719 10.691406 6.414062 10.691406 L 28.308594 10.691406 C 28.710938 10.691406 29.035156 11.015625 29.035156 11.417969 C 29.035156 11.820312 28.710938 12.144531 28.308594 12.144531 Z M 28.308594 12.144531 " fill-opacity="1" fill-rule="nonzero"/><g clip-path="url(#b4a383d562)"><path fill="#215ee6" d="M 26.082031 28.414062 C 25.4375 28.414062 24.824219 28.191406 24.324219 27.773438 L 24.253906 27.714844 C 23.097656 26.742188 22.945312 25.011719 23.917969 23.851562 C 24.175781 23.546875 24.632812 23.503906 24.941406 23.761719 C 25.246094 24.019531 25.289062 24.480469 25.03125 24.785156 C 24.574219 25.332031 24.644531 26.144531 25.1875 26.601562 L 25.257812 26.660156 C 25.523438 26.878906 25.855469 26.984375 26.199219 26.957031 C 26.542969 26.925781 26.851562 26.765625 27.074219 26.5 L 30.191406 22.785156 C 30.648438 22.238281 30.578125 21.425781 30.03125 20.96875 L 29.960938 20.910156 C 29.699219 20.691406 29.363281 20.585938 29.023438 20.613281 C 28.679688 20.644531 28.371094 20.804688 28.148438 21.070312 L 27.621094 21.710938 C 27.363281 22.023438 26.90625 22.066406 26.597656 21.8125 C 26.285156 21.554688 26.242188 21.097656 26.496094 20.789062 L 27.03125 20.140625 C 27.507812 19.574219 28.167969 19.230469 28.894531 19.167969 C 29.625 19.101562 30.335938 19.328125 30.894531 19.796875 L 30.96875 19.855469 C 31.527344 20.328125 31.871094 20.988281 31.9375 21.71875 C 32 22.445312 31.777344 23.15625 31.304688 23.71875 L 28.1875 27.433594 C 27.714844 27.996094 27.054688 28.339844 26.324219 28.402344 C 26.242188 28.410156 26.164062 28.414062 26.082031 28.414062 Z M 26.082031 28.414062 " fill-opacity="1" fill-rule="nonzero"/></g><path fill="#215ee6" d="M 21.328125 30.875 C 20.707031 30.875 20.082031 30.667969 19.570312 30.234375 L 19.496094 30.175781 C 18.339844 29.207031 18.1875 27.472656 19.160156 26.316406 L 22.277344 22.597656 C 23.25 21.441406 24.984375 21.289062 26.140625 22.261719 L 26.210938 22.320312 C 27.367188 23.292969 27.519531 25.023438 26.546875 26.179688 C 26.289062 26.488281 25.832031 26.527344 25.523438 26.269531 C 25.21875 26.011719 25.175781 25.554688 25.433594 25.246094 C 25.890625 24.703125 25.820312 23.890625 25.277344 23.433594 L 25.207031 23.375 C 24.664062 22.917969 23.847656 22.988281 23.390625 23.535156 L 20.273438 27.25 C 19.816406 27.792969 19.886719 28.609375 20.433594 29.0625 L 20.503906 29.125 C 21.046875 29.578125 21.859375 29.507812 22.316406 28.964844 L 22.988281 28.164062 C 23.246094 27.855469 23.703125 27.816406 24.011719 28.074219 C 24.320312 28.332031 24.359375 28.789062 24.101562 29.097656 L 23.429688 29.898438 C 22.886719 30.542969 22.109375 30.875 21.328125 30.875 Z M 21.328125 30.875 " fill-opacity="1" fill-rule="nonzero"/></svg>
